<svg width="299" height="33" viewBox="0 0 299 33" fill="currentColor" xmlns="http://www.w3.org/2000/svg">
<path d="M22.0348 10.7138C21.7803 9.88923 21.4291 9.15119 20.9812 8.49968C20.5434 7.83798 20.0141 7.27299 19.3931 6.80472C18.7823 6.33644 18.0799 5.98523 17.2859 5.75109C16.4918 5.50678 15.6265 5.38462 14.69 5.38462C13.0103 5.38462 11.5139 5.80709 10.2006 6.65202C8.88747 7.49695 7.85421 8.7389 7.10089 10.3778C6.35776 12.0066 5.98619 13.9917 5.98619 16.3331C5.98619 18.6948 6.35776 20.6952 7.10089 22.3342C7.84403 23.9731 8.87729 25.2202 10.2006 26.0753C11.524 26.9202 13.0612 27.3427 14.8121 27.3427C16.4002 27.3427 17.7745 27.0373 18.935 26.4265C20.1057 25.8157 21.0066 24.9504 21.6378 23.8306C22.2689 22.7006 22.5845 21.3772 22.5845 19.8604L23.8672 20.0589H15.3771V15.6307H28.0664V19.3871C28.0664 22.0644 27.4963 24.3803 26.3562 26.3349C25.216 28.2894 23.6483 29.796 21.6531 30.8548C19.6578 31.9033 17.3673 32.4276 14.7816 32.4276C11.9007 32.4276 9.37102 31.7811 7.19251 30.4883C5.02419 29.1853 3.32923 27.3376 2.10764 24.9453C0.896233 22.5429 0.290527 19.6925 0.290527 16.3942C0.290527 13.8696 0.646824 11.6147 1.35942 9.62965C2.08219 7.64456 3.09 5.95978 4.38285 4.57531C5.6757 3.18066 7.19251 2.12195 8.93328 1.39918C10.674 0.666221 12.5675 0.299744 14.6136 0.299744C16.3442 0.299744 17.9577 0.554242 19.4542 1.06324C20.9506 1.56206 22.2791 2.27465 23.4396 3.20102C24.6103 4.1274 25.5723 5.22683 26.3256 6.49932C27.079 7.77181 27.5727 9.17664 27.8068 10.7138H22.0348ZM33.5445 32V0.727301L51 1.06324L53.884 4L53.5 5.46097L39.2096 5.47624V13.9663H50.5L52.8303 17.8295V18.7152H39.2096V27.2511H52L54.0061 30.8548L53.5 32H33.5445ZM85.3628 4.57531V29L81.5 32H80.3238L65.5883 10.6985H65.3287V32H59.6636V4L63.5 0.727301H64.7332L79.4534 22.044H79.7283V1.5L81 0.727301L85.3628 4.57531ZM91.5357 32V4L94.834 0.727301H103.263C105.665 0.727301 107.681 1.14468 109.31 1.97943C110.949 2.81419 112.186 3.98488 113.02 5.49151C113.865 6.98796 114.288 8.73381 114.288 10.729C114.288 12.7345 113.86 14.4753 113.005 15.9513C112.16 17.4173 110.913 18.5523 109.264 19.3565C107.615 20.1506 105.589 20.5476 103.187 20.5476H94.834V15.8445H102.423C103.828 15.8445 104.978 15.651 105.874 15.2642C106.77 14.8672 107.432 14.292 107.859 13.5387C108.297 12.7752 108.516 11.8387 108.516 10.729C108.516 9.61947 108.297 8.67273 107.859 7.88888C107.421 7.09484 106.755 6.49423 105.859 6.08703C104.963 5.66966 103.808 5.46097 102.393 5.46097H97.2008V32H91.5357ZM107.691 17.8295L115.433 32H109.111L101.507 17.8295H107.691ZM129.306 32.4581C126.954 32.4581 124.923 31.9695 123.213 30.9922C121.513 30.0047 120.205 28.6101 119.289 26.8082C118.373 24.9962 117.914 22.8635 117.914 20.4102C117.914 17.9975 118.373 15.8801 119.289 14.0579C120.215 12.2255 121.508 10.8003 123.167 9.78234C124.827 8.75417 126.776 8.24009 129.016 8.24009C130.461 8.24009 131.825 8.47422 133.108 8.9425C134.401 9.4006 135.541 10.1132 136.528 11.0803C137.526 12.0473 138.31 13.2791 138.88 14.7756C139.45 16.2618 139.735 18.0331 139.735 20.0895V21.7844H120.51V18.0586H134.436C134.426 16.9999 134.197 16.0582 133.749 15.2337C133.301 14.3989 132.675 13.7423 131.871 13.2638C131.077 12.7854 130.151 12.5462 129.092 12.5462C127.962 12.5462 126.969 12.821 126.114 13.3707C125.259 13.9103 124.592 14.6229 124.114 15.5085C123.646 16.384 123.406 17.346 123.396 18.3945V21.647C123.396 23.0111 123.646 24.1818 124.145 25.1591C124.643 26.1262 125.341 26.8693 126.237 27.3885C127.132 27.8975 128.181 28.152 129.382 28.152C130.186 28.152 130.914 28.04 131.566 27.8161C132.217 27.5819 132.782 27.2409 133.261 26.793C133.739 26.3451 134.1 25.7902 134.345 25.1286L139.506 25.7088C139.18 27.0729 138.559 28.264 137.643 29.282C136.737 30.2898 135.577 31.0736 134.162 31.6335C132.747 32.1832 131.128 32.4581 129.306 32.4581ZM151.161 32.4734C149.675 32.4734 148.336 32.2087 147.145 31.6793C145.964 31.1398 145.027 30.3458 144.335 29.2972C143.653 28.2487 143.312 26.9558 143.312 25.4187C143.312 24.0953 143.556 23.0009 144.045 22.1357C144.534 21.2704 145.2 20.5781 146.045 20.0589C146.89 19.5398 147.842 19.1478 148.901 18.8832C149.97 18.6083 151.074 18.4098 152.214 18.2876C153.589 18.1451 154.703 18.0179 155.559 17.9059C156.414 17.7837 157.035 17.6005 157.421 17.3562C157.818 17.1017 158.017 16.7098 158.017 16.1804V16.0888C158.017 14.9384 157.676 14.0477 156.994 13.4165C156.312 12.7854 155.329 12.4698 154.047 12.4698C152.693 12.4698 151.619 12.765 150.825 13.3555C150.041 13.9459 149.512 14.6432 149.237 15.4474L144.076 14.7145C144.483 13.2893 145.155 12.0982 146.091 11.1413C147.028 10.1742 148.173 9.4515 149.527 8.97304C150.881 8.48441 152.377 8.24009 154.016 8.24009C155.146 8.24009 156.271 8.37243 157.391 8.6371C158.511 8.90178 159.534 9.33952 160.46 9.95031C161.387 10.5509 162.13 11.3704 162.69 12.4087C163.26 13.4471 163.545 14.745 163.545 16.3026V32H158.231V28.7781H158.047C157.712 29.4296 157.238 30.0404 156.627 30.6104C156.027 31.1703 155.268 31.6233 154.352 31.9695C153.446 32.3054 152.382 32.4734 151.161 32.4734ZM152.596 28.4116C153.706 28.4116 154.668 28.1927 155.482 27.755C156.297 27.3071 156.923 26.7166 157.36 25.9837C157.808 25.2507 158.032 24.4516 158.032 23.5863V20.8224C157.859 20.965 157.564 21.0973 157.147 21.2195C156.739 21.3416 156.281 21.4485 155.772 21.5401C155.263 21.6317 154.759 21.7132 154.261 21.7844C153.762 21.8557 153.329 21.9168 152.963 21.9677C152.138 22.0797 151.4 22.2629 150.748 22.5174C150.097 22.7719 149.583 23.1282 149.206 23.5863C148.83 24.0342 148.641 24.6145 148.641 25.3271C148.641 26.3451 149.013 27.1136 149.756 27.6328C150.499 28.152 151.446 28.4116 152.596 28.4116ZM177.807 32.4123C175.964 32.4123 174.315 31.9389 172.859 30.9922C171.404 30.0455 170.253 28.6712 169.408 26.8693C168.563 25.0675 168.141 22.8788 168.141 20.3033C168.141 17.6972 168.568 15.4983 169.424 13.7067C170.289 11.9048 171.454 10.5458 172.92 9.62965C174.386 8.70327 176.02 8.24009 177.822 8.24009C179.196 8.24009 180.326 8.47422 181.212 8.9425C182.098 9.4006 182.8 9.9554 183.319 10.6069C183.838 11.2482 184.24 11.8539 184.525 12.424H184.755V0.727301H190.297V32H184.861V28.3047H184.525C184.24 28.8748 183.828 29.4805 183.289 30.1218C182.749 30.753 182.036 31.2925 181.151 31.7404C180.265 32.1883 179.15 32.4123 177.807 32.4123ZM179.349 27.8771C180.52 27.8771 181.517 27.5616 182.342 26.9304C183.166 26.2891 183.793 25.3983 184.22 24.2582C184.648 23.118 184.861 21.7895 184.861 20.2727C184.861 18.7559 184.648 17.4376 184.22 16.3178C183.803 15.198 183.182 14.3277 182.357 13.7067C181.543 13.0857 180.54 12.7752 179.349 12.7752C178.117 12.7752 177.089 13.0959 176.264 13.7372C175.44 14.3786 174.819 15.2642 174.402 16.3942C173.984 17.5241 173.775 18.817 173.775 20.2727C173.775 21.7386 173.984 23.0468 174.402 24.1971C174.829 25.3372 175.455 26.2382 176.28 26.8999C177.114 27.5514 178.138 27.8771 179.349 27.8771ZM196.188 32V8.54548H201.471V12.5309H201.746C202.235 11.1871 203.044 10.1386 204.174 9.38533C205.304 8.62183 206.653 8.24009 208.221 8.24009C209.809 8.24009 211.147 8.62692 212.237 9.4006C213.336 10.1641 214.11 11.2075 214.558 12.5309H214.802C215.321 11.2279 216.196 10.1895 217.428 9.41587C218.67 8.63201 220.141 8.24009 221.841 8.24009C223.999 8.24009 225.761 8.92214 227.125 10.2862C228.489 11.6503 229.171 13.6405 229.171 16.2567V32H223.628V17.1119C223.628 15.6561 223.241 14.5923 222.467 13.9205C221.694 13.2384 220.747 12.8974 219.627 12.8974C218.294 12.8974 217.25 13.3147 216.497 14.1495C215.754 14.9741 215.382 16.0481 215.382 17.3714V32H209.961V16.8828C209.961 15.6714 209.595 14.7043 208.862 13.9815C208.139 13.2588 207.192 12.8974 206.022 12.8974C205.228 12.8974 204.505 13.101 203.853 13.5082C203.202 13.9052 202.683 14.4702 202.296 15.2031C201.909 15.9259 201.716 16.7708 201.716 17.7379V32H196.188ZM245.162 32.4581C242.811 32.4581 240.78 31.9695 239.07 30.9922C237.369 30.0047 236.061 28.6101 235.145 26.8082C234.229 24.9962 233.771 22.8635 233.771 20.4102C233.771 17.9975 234.229 15.8801 235.145 14.0579C236.072 12.2255 237.364 10.8003 239.024 9.78234C240.683 8.75417 242.632 8.24009 244.872 8.24009C246.318 8.24009 247.682 8.47422 248.964 8.9425C250.257 9.4006 251.397 10.1132 252.385 11.0803C253.382 12.0473 254.166 13.2791 254.736 14.7756C255.306 16.2618 255.592 18.0331 255.592 20.0895V21.7844H236.367V18.0586H250.293C250.283 16.9999 250.054 16.0582 249.606 15.2337C249.158 14.3989 248.532 13.7423 247.728 13.2638C246.934 12.7854 246.007 12.5462 244.948 12.5462C243.818 12.5462 242.826 12.821 241.971 13.3707C241.116 13.9103 240.449 14.6229 239.97 15.5085C239.502 16.384 239.263 17.346 239.253 18.3945V21.647C239.253 23.0111 239.502 24.1818 240.001 25.1591C240.5 26.1262 241.197 26.8693 242.093 27.3885C242.989 27.8975 244.037 28.152 245.239 28.152C246.043 28.152 246.771 28.04 247.422 27.8161C248.074 27.5819 248.639 27.2409 249.117 26.793C249.596 26.3451 249.957 25.7902 250.201 25.1286L255.362 25.7088C255.037 27.0729 254.416 28.264 253.5 29.282C252.594 30.2898 251.433 31.0736 250.018 31.6335C248.603 32.1832 246.984 32.4581 245.162 32.4581Z" fill="white"/>
<path d="M259.426 31.5496C259.714 31.8128 260.06 31.9445 260.464 31.9445C260.726 31.9445 260.966 31.8848 261.183 31.7656C261.405 31.6421 261.583 31.4776 261.716 31.2719C261.853 31.0663 261.924 30.838 261.929 30.5871C261.924 30.2169 261.775 29.9002 261.483 29.6369C261.194 29.3737 260.855 29.242 260.464 29.242C260.06 29.242 259.714 29.3737 259.426 29.6369C259.137 29.9002 258.995 30.2169 259 30.5871C258.995 30.9655 259.137 31.2863 259.426 31.5496Z" fill="white"/>
<path d="M272.35 19.1728H269.901V28.0574C269.896 28.5017 269.821 28.876 269.674 29.1804C269.532 29.4847 269.324 29.7151 269.049 29.8714C268.774 30.0236 268.439 30.0997 268.044 30.0997C267.68 30.0997 267.358 30.0339 267.079 29.9023C266.799 29.7706 266.58 29.5814 266.42 29.3346C266.264 29.0878 266.185 28.7937 266.18 28.4523H263.724C263.724 29.2297 263.911 29.8796 264.283 30.402C264.656 30.9244 265.16 31.3193 265.794 31.5866C266.433 31.8499 267.152 31.9815 267.951 31.9815C268.825 31.9815 269.59 31.8252 270.247 31.5126C270.908 31.1959 271.423 30.7455 271.791 30.1614C272.159 29.5732 272.346 28.8718 272.35 28.0574V19.1728Z" fill="white"/>
<path d="M281.652 21.3878C282.114 21.688 282.375 22.1076 282.437 22.6464H284.813C284.8 21.9348 284.585 21.3055 284.168 20.7584C283.751 20.2072 283.176 19.7774 282.444 19.4689C281.716 19.1562 280.869 19 279.901 19C278.947 19 278.093 19.1562 277.339 19.4689C276.584 19.7774 275.987 20.2113 275.548 20.7707C275.114 21.3302 274.896 21.9821 274.896 22.7266C274.896 23.6316 275.22 24.3576 275.868 24.9046C276.52 25.4476 277.408 25.8527 278.53 26.1201L280.081 26.4903C280.569 26.6055 280.995 26.7371 281.359 26.8851C281.727 27.0291 282.013 27.2101 282.217 27.4281C282.421 27.642 282.526 27.9134 282.531 28.2425C282.526 28.6045 282.408 28.9212 282.178 29.1927C281.947 29.4601 281.628 29.6698 281.219 29.822C280.816 29.9701 280.345 30.0441 279.808 30.0441C279.293 30.0441 278.828 29.9721 278.41 29.8282C277.997 29.6842 277.663 29.4662 277.405 29.1742C277.148 28.8821 277.001 28.5161 276.966 28.076H274.537C274.572 28.915 274.807 29.6266 275.242 30.2107C275.681 30.7948 276.289 31.2391 277.066 31.5434C277.847 31.8478 278.767 32 279.828 32C280.919 32 281.849 31.8437 282.617 31.5311C283.389 31.2144 283.979 30.7763 284.387 30.2169C284.796 29.6534 285 29.0015 285 28.2611C285 27.7139 284.889 27.2368 284.667 26.8296C284.445 26.4224 284.143 26.0748 283.762 25.7869C283.385 25.4989 282.956 25.2604 282.477 25.0712C282.002 24.882 281.508 24.7319 280.993 24.6208L279.715 24.3246C279.435 24.2629 279.158 24.1869 278.883 24.0963C278.608 24.0059 278.357 23.8948 278.131 23.7632C277.904 23.6274 277.725 23.4629 277.592 23.2695C277.463 23.0763 277.398 22.848 277.398 22.5847C277.403 22.268 277.503 21.9862 277.698 21.7394C277.894 21.4926 278.175 21.2972 278.544 21.1533C278.912 21.0093 279.353 20.9373 279.868 20.9373C280.6 20.9373 281.194 21.0875 281.652 21.3878Z" fill="white"/>
</svg>
